<?xml version="1.0" encoding="utf-8"?>
<!-- Generator: Adobe Illustrator 16.0.0, SVG Export Plug-In . SVG Version: 6.00 Build 0)  -->
<!DOCTYPE svg PUBLIC "-//W3C//DTD SVG 1.1//EN" "http://www.w3.org/Graphics/SVG/1.1/DTD/svg11.dtd">
<svg version="1.1" id="Слой_1" xmlns="http://www.w3.org/2000/svg" xmlns:xlink="http://www.w3.org/1999/xlink" x="0px" y="0px"
	 width="512px" height="512px" viewBox="0 0 512 512" enable-background="new 0 0 512 512" xml:space="preserve">
<g id="_x32__hairstyle_x2C__style_x2C__dress_x2C__female_x2C__people_x2C__woman_x2C__barbershop">
	<g>
		<polygon fill="#F6BB42" points="411.834,398.601 100.01,398.601 100.01,184.005 282.818,100.01 411.553,168.623 411.834,184.005 
					"/>
	</g>
	<g opacity="0.5">
		<rect x="100.01" y="180.005" fill="#FFFFFF" width="15.999" height="218.596"/>
	</g>
	<g opacity="0.2">
		<rect x="395.991" y="160.006" width="15.999" height="238.595"/>
	</g>
	<g>
		<path fill="#F6BB42" d="M411.99,160.006c0-85.526-68.848-154.889-154.131-155.896c9.538,36.768,24.959,95.9,24.959,95.9
			s53.653,41.208,128.734,68.613C411.709,165.752,411.99,162.916,411.99,160.006z"/>
	</g>
	<g>
		<path fill="#FFCE54" d="M256,4.016c-86.151,0-155.99,69.839-155.99,155.99c0,8.026,0.796,15.851,1.964,23.553
			C242.403,153.748,355.322,40.947,355.963,40.311C328.886,17.671,294.053,4.016,256,4.016z"/>
	</g>
	<g>
		<path fill="#F6BB42" d="M411.99,160.006c0-48.099-21.772-91.08-55.997-119.673c-26.639-22.248-73.175,59.677-73.175,59.677
			s53.653,41.208,128.734,68.613C411.709,165.752,411.99,162.916,411.99,160.006z"/>
	</g>
	<g>
		<path fill="#FFCE54" d="M256,4.016c-86.151,0-155.99,69.839-155.99,155.99c0,8.026,0.796,15.851,1.964,23.553
			C242.403,153.748,355.322,40.947,355.963,40.311C328.886,17.671,294.053,4.016,256,4.016z"/>
	</g>
	<g opacity="0.2">
		<g>
			<path d="M355.993,40.333c-0.016-0.007-0.022-0.016-0.03-0.022C328.886,17.671,294.053,4.016,256,4.016
				c-2.539,0-5.007,0.258-7.515,0.379c34.716,1.875,66.442,14.979,91.478,35.916c0.009,0.007,0.016,0.016,0.032,0.022
				c34.224,28.593,55.996,71.574,55.996,119.673c0,0.859-0.093,1.699-0.125,2.547c5.125,2.078,10.336,4.117,15.687,6.07
				c0.156-2.871,0.438-5.707,0.438-8.617C411.99,111.907,390.218,68.926,355.993,40.333z"/>
		</g>
	</g>
	<g opacity="0.5">
		<path fill="#FFFFFF" d="M116.009,160.006c0-83.612,65.839-151.663,148.475-155.611c-2.82-0.152-5.624-0.379-8.483-0.379
			c-86.151,0-155.99,69.839-155.99,155.99c0,8.026,0.796,15.851,1.964,23.553c5.227-1.108,10.402-2.366,15.55-3.698
			C116.649,173.349,116.009,166.76,116.009,160.006z"/>
	</g>
	<g>
		<path fill="#AC92EC" d="M475.986,459.986c0,31.999,0,47.998,0,47.998H36.013c0,0,0-15.999,0-47.998
			c0-31.997,15.999-43.996,47.998-55.995c6.558-2.484,14.878-4.961,23.838-7.845c5.121-1.671,10.558-3.437,15.921-5.358l0.239,0.641
			c0,0,23.998,60.559,131.992,60.559c107.993,0,131.992-60.559,131.992-60.559l0.234-0.641c14.726,5.281,29.365,9.358,39.763,13.203
			C459.987,415.99,475.986,427.989,475.986,459.986z"/>
	</g>
	<g opacity="0.4">
		<g>
			<path fill="#FFFFFF" d="M52.012,467.986c0-31.998,15.999-43.997,47.998-55.996c6.558-2.483,14.878-4.961,23.838-7.844
				c2.09-0.68,4.253-1.39,6.421-2.109c-4.531-6.295-6.261-10.608-6.261-10.608l-0.239-0.641c-5.363,1.922-10.8,3.688-15.921,5.358
				c-8.96,2.884-17.28,5.36-23.838,7.845c-31.999,11.999-47.998,23.998-47.998,55.995c0,31.999,0,47.998,0,47.998h15.999
				C52.012,500.273,52.012,487.032,52.012,467.986z"/>
		</g>
	</g>
	<g opacity="0.3">
		<g>
			<path d="M459.987,467.986c0-31.998-15.999-43.997-47.997-55.996c-6.563-2.483-14.874-4.961-23.842-7.844
				c-2.086-0.68-4.25-1.39-6.422-2.109c4.531-6.295,6.266-10.608,6.266-10.608l0.234-0.641c5.366,1.922,10.804,3.688,15.921,5.358
				c8.968,2.884,17.28,5.36,23.842,7.845c31.998,11.999,47.997,23.998,47.997,55.995c0,31.999,0,47.998,0,47.998h-15.999
				C459.987,500.273,459.987,487.032,459.987,467.986z"/>
		</g>
	</g>
	<g>
		<path fill="#EAC6BB" d="M331.995,339.995c0,26.231,28.318,40.716,56.231,50.793l-0.234,0.641c0,0-23.999,60.559-131.992,60.559
			c-107.994,0-131.992-60.559-131.992-60.559l-0.239-0.641c27.917-10.077,56.235-24.562,56.235-50.793v-23.038
			c25.279,24.162,53.598,39.036,75.995,39.036c22.397,0,50.716-14.96,75.995-39.036V339.995z"/>
	</g>
	<g>
		<path fill="#EAC6BB" d="M282.795,100.01c0,0,46.091,35.548,113.196,62.625v17.37c0,53.035-29.123,103.759-63.996,136.952
			c-25.279,24.076-53.598,39.036-75.995,39.036c-22.397,0-50.716-14.874-75.995-39.036c-31.358-29.835-58.075-73.835-63.118-120.953
			v-15.905C181.844,163.436,240.079,129.98,282.795,100.01z"/>
	</g>
	<g opacity="0.2">
		<path d="M331.995,324.957v-8c-25.279,24.076-53.598,39.036-75.995,39.036c-22.397,0-50.716-14.874-75.995-39.036v8
			c25.279,24.162,53.598,39.036,75.995,39.036C278.397,363.993,306.716,349.033,331.995,324.957z"/>
	</g>
	<g opacity="0.2">
		<path d="M379.992,155.928v24.077c0,53.035-29.123,103.759-63.995,136.952c-22.366,21.304-47.1,35.42-68.016,38.396
			c2.737,0.391,5.425,0.641,8.019,0.641c22.397,0,50.716-14.96,75.995-39.036c34.873-33.193,63.996-83.917,63.996-136.952v-17.37
			L379.992,155.928z"/>
	</g>
	<g opacity="0.5">
		<path fill="#FFFFFF" d="M196.004,316.957c-31.358-29.835-58.075-73.835-63.118-120.953l-0.699-20.171l-15.3,4.266v15.905
			c5.043,47.118,31.76,91.118,63.118,120.953c25.279,24.162,53.598,39.036,75.995,39.036c2.578,0,5.258-0.25,7.98-0.641
			C243.071,352.377,218.358,338.322,196.004,316.957z"/>
	</g>
	<g opacity="0.2">
		<path d="M124.008,391.429c0,0,23.998,60.559,131.992,60.559c107.993,0,131.992-60.559,131.992-60.559l0.234-0.641
			c-1.156-0.414-2.313-0.851-3.461-1.281c-9.406,15.328-41.912,54.481-128.766,54.481c-86.858,0-119.36-39.153-128.766-54.481
			c-1.152,0.431-2.309,0.867-3.465,1.281L124.008,391.429z"/>
	</g>
	<g>
		<g opacity="0.5">
			<path fill="#FFFFFF" d="M136.988,402.194c27.018-10.57,59.016-29.562,59.016-54.2v-9.406c-5.406-4.155-10.773-8.64-15.999-13.631
				v15.038c0,25.154-26.022,39.481-52.771,49.512C129.27,392.819,132.472,397.288,136.988,402.194z"/>
		</g>
		<g opacity="0.5">
			<path fill="#FFFFFF" d="M131.761,404.046l0.059,0.093l0.011-0.007C131.809,404.101,131.785,404.076,131.761,404.046z"/>
		</g>
	</g>
	<g opacity="0.2">
		<path d="M374.946,402.257c4.522-4.906,7.726-9.359,9.772-12.68c-26.811-10.03-52.958-24.373-52.958-49.582v-15.038
			c-5.233,4.991-10.593,9.476-15.999,13.631v9.406C315.762,372.696,347.893,391.711,374.946,402.257z"/>
	</g>
	<g>
		<g>
			<path fill="#3A3847" d="M256,359.993c-23.014,0-52.454-15.007-78.757-40.146c-35.639-33.912-59.692-80.05-64.332-123.418
				c-0.234-2.195,1.355-4.168,3.55-4.402c2.266-0.195,4.168,1.359,4.402,3.551c4.445,41.54,27.584,85.826,61.899,118.48
				c24.858,23.757,52.235,37.936,73.238,37.936c20.921,0,48.294-14.179,73.238-37.936c39.294-37.403,62.754-87.514,62.754-134.054
				c0-2.211,1.788-4,3.999-4c2.212,0,4,1.789,4,4c0,48.688-24.389,100.962-65.238,139.851
				C308.364,344.986,278.92,359.993,256,359.993z"/>
		</g>
		<g>
			<path fill="#3A3847" d="M475.986,511.984H36.013c-2.21,0-4-1.789-4-4v-47.998c0-34.271,17.78-47.435,50.591-59.745
				c4.898-1.845,10.78-3.703,17.179-5.727l8.472-2.711c4.598-1.5,9.414-3.077,14.167-4.781
				c24.939-8.999,53.583-22.498,53.583-47.027c0-2.211,1.789-4,4-4s4,1.789,4,4c0,29.513-31.463,44.661-58.875,54.559
				c-4.835,1.734-9.718,3.328-14.382,4.859l-8.558,2.733c-6.242,1.97-11.976,3.773-16.764,5.586
				c-30.772,11.539-45.412,22.304-45.412,52.254v43.998h431.974v-43.998c0-29.95-14.641-40.715-45.404-52.246
				c-4.984-1.844-10.976-3.749-17.49-5.813c-7.008-2.227-14.601-4.64-22.21-7.374c-27.42-9.897-58.888-25.046-58.888-54.559
				c0-2.211,1.789-4,4-4s4,1.789,4,4c0,24.529,28.639,38.028,53.59,47.036c7.516,2.695,15.015,5.07,21.929,7.272
				c6.648,2.109,12.758,4.047,17.866,5.938c32.826,12.311,50.606,25.475,50.606,59.745v47.998
				C479.986,510.195,478.197,511.984,475.986,511.984z"/>
		</g>
		<g>
			<path fill="#3A3847" d="M180.005,343.994c-2.211,0-4-1.788-4-3.999v-23.038c0-2.211,1.789-4,4-4s4,1.789,4,4v23.038
				C184.004,342.206,182.216,343.994,180.005,343.994z"/>
		</g>
		<g>
			<path fill="#3A3847" d="M331.995,343.994c-2.211,0-4-1.788-4-3.999v-23.038c0-2.211,1.789-4,4-4s4,1.789,4,4v23.038
				C335.995,342.206,334.206,343.994,331.995,343.994z"/>
		</g>
		<g>
			<path fill="#3A3847" d="M411.99,164.006c-2.211,0-4-1.789-4-4c0-45.149-19.889-87.679-54.559-116.688
				C326.152,20.554,291.553,8.016,256,8.016c-83.807,0-151.991,68.183-151.991,151.99c0,2.211-1.789,4-4,4s-4-1.789-4-4
				c0-88.218,71.773-159.99,159.99-159.99c37.42,0,73.839,13.198,102.557,37.166c36.497,30.533,57.434,75.3,57.434,122.824
				C415.99,162.217,414.201,164.006,411.99,164.006z"/>
		</g>
		<g>
			<path fill="#3A3847" d="M100.01,379.992c-2.211,0-4-1.789-4-4V160.006c0-2.211,1.789-4,4-4s4,1.789,4,4v215.986
				C104.009,378.203,102.221,379.992,100.01,379.992z"/>
		</g>
		<g>
			<path fill="#3A3847" d="M411.99,379.992c-2.211,0-4-1.789-4-4V160.006c0-2.211,1.789-4,4-4s4,1.789,4,4v215.986
				C415.99,378.203,414.201,379.992,411.99,379.992z"/>
		</g>
		<g>
			<path fill="#3A3847" d="M100.006,188.004c-1.86,0-3.523-1.301-3.914-3.191c-0.445-2.163,0.945-4.28,3.109-4.726
				c73.171-15.093,138.979-53.657,181.297-83.351c44.514-31.244,72.387-59.031,72.668-59.309c1.562-1.563,4.094-1.563,5.656-0.008
				c1.562,1.558,1.562,4.093,0,5.655c-0.281,0.282-28.608,28.534-73.73,60.207c-42.935,30.132-109.763,69.271-184.273,84.641
				C100.545,187.977,100.271,188.004,100.006,188.004z"/>
		</g>
		<g>
			<path fill="#3A3847" d="M411.834,172.724c-0.461,0-0.922-0.078-1.375-0.242c-74.901-27.33-129.555-68.882-130.093-69.296
				c-1.759-1.344-2.087-3.855-0.743-5.609c1.345-1.75,3.859-2.078,5.609-0.742c0.531,0.41,54.263,41.243,127.969,68.133
				c2.07,0.758,3.148,3.055,2.383,5.128C414.99,171.716,413.459,172.724,411.834,172.724z"/>
		</g>
		<g>
			<path fill="#3A3847" d="M256,455.987c-109.45,0-134.691-60.504-135.71-63.082c-0.813-2.047,0.188-4.367,2.234-5.179
				c2.059-0.829,4.375,0.18,5.199,2.218c0.234,0.578,24.62,58.044,128.277,58.044c103.658,0,128.039-57.466,128.273-58.044
				c0.828-2.031,3.148-3.038,5.203-2.218c2.047,0.812,3.047,3.132,2.234,5.179C390.694,395.483,365.446,455.987,256,455.987z"/>
		</g>
	</g>
</g>
</svg>
