<?xml version="1.0" encoding="UTF-8" standalone="no"?>
<svg
   height="48"
   viewBox="0 -960 960 960"
   width="48"
   version="1.1"
   id="svg4"
   sodipodi:docname="delete_block.svg"
   inkscape:version="1.1.1 (3bf5ae0d25, 2021-09-20)"
   xmlns:inkscape="http://www.inkscape.org/namespaces/inkscape"
   xmlns:sodipodi="http://sodipodi.sourceforge.net/DTD/sodipodi-0.dtd"
   xmlns="http://www.w3.org/2000/svg"
   xmlns:svg="http://www.w3.org/2000/svg">
  <defs
     id="defs8" />
  <sodipodi:namedview
     id="namedview6"
     pagecolor="#ffffff"
     bordercolor="#666666"
     borderopacity="1.0"
     inkscape:pageshadow="2"
     inkscape:pageopacity="0.0"
     inkscape:pagecheckerboard="0"
     showgrid="false"
     inkscape:zoom="16.1875"
     inkscape:cx="24"
     inkscape:cy="23.969112"
     inkscape:window-width="1920"
     inkscape:window-height="975"
     inkscape:window-x="0"
     inkscape:window-y="41"
     inkscape:window-maximized="1"
     inkscape:current-layer="svg4" />
  <path
     d="M180-120q-24 0-42-18t-18-42v-600q0-24 18-42t42-18h600q24 0 42 18t18 42v600q0 24-18 42t-42 18H180Zm0-60h600v-600H180v600Zm0 0v-600 600Z"
     id="path2" />
  <path
     d="m 325.58482,-266.33913 q -16.01997,0 -27.42813,-11.40816 -11.40816,-11.40816 -11.40816,-27.42813 V -674.12016 H 260.2104 v -38.83629 h 121.68704 v -19.41814 H 552.7771 v 19.41814 h 121.68704 v 38.83629 h -26.53813 v 368.94474 q 0,15.53451 -11.65089,27.1854 -11.65088,11.65089 -27.1854,11.65089 z m 283.5049,-407.78103 h -283.5049 v 368.94474 h 283.5049 z m -214.89413,313.27939 h 38.83629 v -258.26131 h -38.83629 z m 107.44707,0 h 38.83629 V -619.10208 H 501.64266 Z M 325.58482,-674.12016 v 368.94474 z"
     id="path878"
     style="stroke-width:0.647271" />
</svg>
